<svg width="120" height="120" viewBox="0 0 120 120" fill="none" xmlns="http://www.w3.org/2000/svg">
<path d="M110.101 50.7486L73.6536 54.3464L101.966 31.1285C106.011 27.5978 106.212 21.3855 102.413 17.5866C98.6145 13.7878 92.4022 14.0112 88.8715 18.0335L65.6536 46.3464L69.2514 9.89949C69.6089 4.53636 65.3631 0 60 0C54.6369 0 50.3911 4.53636 50.7486 9.89949L54.3464 46.3464L31.1285 18.0335C27.5978 13.9888 21.3855 13.7878 17.5866 17.5866C13.7877 21.3855 14.0112 27.5978 18.0335 31.1285L46.3464 54.3464L9.89944 50.7486C4.53631 50.3911 0 54.6369 0 60C0 65.3631 4.53631 69.609 9.89944 69.2514L46.3464 65.6536L18.0335 88.8715C13.9888 92.4023 13.7877 98.6145 17.5866 102.413C21.3855 106.212 27.5978 105.989 31.1285 101.966L54.3464 73.6537L50.7486 110.101C50.3911 115.464 54.6369 120 60 120C65.3631 120 69.6089 115.464 69.2514 110.101L65.6536 73.6537L88.8715 101.966C92.4022 106.011 98.6145 106.212 102.413 102.413C106.212 98.6145 105.989 92.4023 101.966 88.8715L73.6536 65.6536L110.101 69.2514C115.464 69.609 120 65.3631 120 60C120 54.6369 115.464 50.3911 110.101 50.7486V50.7486Z" fill="black"/>
</svg>
