<svg width="121" height="120" viewBox="0 0 121 120" fill="none" xmlns="http://www.w3.org/2000/svg">
<path d="M60.2812 0C27.1415 0 0.28125 26.8602 0.28125 60C0.28125 93.1397 27.1415 120 60.2812 120C93.421 120 120.281 93.1397 120.281 60C120.281 26.8602 93.4028 0 60.2812 0ZM92.8765 55.2269L82.4954 51.8512C76.0707 49.7641 69.2831 52.3593 65.744 57.7495C81.4065 64.5372 89.6461 82.2686 84.2559 98.8385C82.5317 104.156 76.833 107.06 71.5154 105.336C66.1978 103.612 63.294 97.9129 65.0181 92.5953L68.3938 82.2141C70.4809 75.7895 67.8856 69.0018 62.4954 65.4628C55.7077 81.1252 37.9764 89.3648 21.4065 83.9746C16.0889 82.2504 13.1851 76.5517 14.9092 71.2341C16.6333 65.9165 22.3321 63.0127 27.6497 64.7368L38.0308 68.1125C44.4555 70.1996 51.2431 67.6043 54.7822 62.2142C39.1197 55.4265 30.8802 37.6951 36.2704 21.1252C37.9945 15.8076 43.6932 12.9038 49.0108 14.6279C54.3284 16.3521 57.2323 22.0508 55.5081 27.3684L52.1324 37.7495C50.0453 44.1742 52.6406 50.9619 58.0308 54.5009C64.8184 38.8385 82.5498 30.5989 99.1197 35.9891C104.437 37.7132 107.341 43.412 105.617 48.7296C103.893 54.0472 98.1942 56.951 92.8765 55.2269V55.2269Z" fill="black"/>
</svg>
