<svg width="121" height="121" viewBox="0 0 121 121" fill="none" xmlns="http://www.w3.org/2000/svg">
<path d="M120.484 30.8757V0.714844H90.3352C75.0883 0.714844 62.4592 12.1084 60.4844 26.8328C58.4867 12.1084 45.8805 0.714844 30.6337 0.714844H0.484375V30.8757C0.484375 46.0594 11.7588 58.6245 26.3856 60.7148C11.7817 62.8052 0.484375 75.3703 0.484375 90.554V120.715H30.6337C45.5361 120.715 57.9126 109.827 60.3007 95.5847C60.4155 95.5847 60.5533 95.5847 60.6681 95.5847C63.0791 109.804 75.4328 120.715 90.3352 120.715H120.484V90.554C120.484 75.3703 109.21 62.8052 94.5831 60.7148C109.187 58.6245 120.484 46.0594 120.484 30.8757V30.8757Z" fill="black"/>
</svg>
