<svg width="31" height="109" viewBox="0 0 31 109" fill="none" xmlns="http://www.w3.org/2000/svg">
<path d="M0.539062 81.8518C0.539062 72.3673 7.34356 67.5586 12.3234 64.0423C17.0181 60.7351 19.66 58.6823 19.66 54.8429C19.66 51.0035 17.0181 48.9508 12.3234 45.6436C7.34356 42.1273 0.539062 37.3186 0.539062 27.8531C0.539062 18.3877 7.34356 13.5599 12.3234 10.0626C17.0181 6.75543 19.66 4.70268 19.66 0.863281H30.1709C30.1709 10.3477 23.3664 15.1565 18.3866 18.6728C13.6919 21.98 11.0499 24.0327 11.0499 27.8721C11.0499 31.7115 13.6919 33.7643 18.3866 37.0715C23.3664 40.5877 30.1709 45.3965 30.1709 54.8619C30.1709 64.3274 23.3664 69.1551 18.3866 72.6714C13.6919 75.9786 11.0499 78.0314 11.0499 81.8708C11.0499 85.7102 13.6919 87.7629 18.3866 91.0701C23.3664 94.5864 30.1709 99.3952 30.1709 108.88H19.66C19.66 105.04 17.0181 102.987 12.3234 99.6803C7.34356 96.164 0.539062 91.3552 0.539062 81.8708V81.8518Z" fill="black"/>
</svg>
