<svg width="121" height="120" viewBox="0 0 121 120" fill="none" xmlns="http://www.w3.org/2000/svg">
<path d="M111.691 28.6035C90.0079 21.5499 66.8048 32.3321 57.9226 52.8277C50.869 48.2203 47.4729 39.3144 50.204 30.9072L54.6214 17.3226C56.8776 10.364 53.0777 2.90669 46.1192 0.650503C39.1606 -1.60568 31.7034 2.19425 29.4472 9.15279C22.3936 30.8359 33.1758 54.0389 53.6715 62.9212C49.0641 69.9747 40.1581 73.3708 31.7509 70.6397L18.1662 66.2223C11.2077 63.9662 3.75045 67.766 1.49426 74.7246C-0.761923 81.6831 3.03793 89.1403 9.99648 91.3965C31.6796 98.4501 54.8827 87.6679 63.7649 67.1723C70.8185 71.7797 74.2146 80.6857 71.4835 89.0929L67.0661 102.677C64.8099 109.636 68.6097 117.093 75.5683 119.349C82.5268 121.606 89.9842 117.806 92.2403 110.847C99.2939 89.1641 88.5117 65.9611 68.016 57.0788C72.6234 50.0253 81.5294 46.6292 89.9367 49.3603L103.521 53.7777C110.48 56.0338 117.937 52.234 120.193 45.2754C122.449 38.3169 118.65 30.8597 111.691 28.6035Z" fill="black"/>
</svg>
