<svg width="120" height="120" viewBox="0 0 120 120" fill="none" xmlns="http://www.w3.org/2000/svg">
<path d="M61.7148 120H58.2871V82.6045H61.7148V120ZM92.7559 90.3389L90.332 92.7617L74.7725 77.2021L77.1963 74.7783L92.7559 90.3389ZM45.2236 77.1943L29.6758 92.7422L27.252 90.3184L42.7998 74.7705L45.2236 77.1943ZM37.3955 61.7139H0V58.2861H37.3955V61.7139ZM120 61.7139H82.6045V58.2861H120V61.7139ZM92.7598 29.665L77.1992 45.2246L74.7764 42.8008L90.3359 27.2412L92.7598 29.665ZM45.2275 42.7861L42.8037 45.209L27.2559 29.6611L29.6797 27.2383L45.2275 42.7861ZM61.7148 37.3955H58.2871V0H61.7148V37.3955Z" fill="black"/>
</svg>
