<svg width="121" height="120" viewBox="0 0 121 120" fill="none" xmlns="http://www.w3.org/2000/svg">
<path d="M60.5625 0C27.4228 0 0.5625 26.8602 0.5625 60C0.5625 93.1397 27.4228 120 60.5625 120C93.7022 120 120.562 93.1397 120.562 60C120.562 26.8602 93.6841 0 60.5625 0ZM101.234 67.5136L71.6333 64.5916L94.6278 83.4483C97.9128 86.3158 98.0761 91.3612 94.9908 94.4465C91.9055 97.5318 86.8601 97.3503 83.9926 94.0835L65.136 71.0889L68.058 100.69C68.3484 105.045 64.9001 108.73 60.5443 108.73C56.1886 108.73 52.7403 105.045 53.0307 100.69L55.9527 71.0889L37.0961 94.0835C34.2285 97.3684 29.1832 97.5318 26.0979 94.4465C23.0126 91.3612 23.1941 86.3158 26.4608 83.4483L49.4554 64.5916L19.8547 67.5136C15.499 67.804 11.8148 64.3557 11.8148 60C11.8148 55.6443 15.499 52.196 19.8547 52.4864L49.4554 55.4083L26.4608 36.5517C23.1759 33.6842 23.0126 28.6388 26.0979 25.5535C29.1832 22.4682 34.2285 22.6497 37.0961 25.9165L55.9527 48.9111L53.0307 19.3103C52.7403 14.9546 56.1886 11.2704 60.5443 11.2704C64.9001 11.2704 68.3484 14.9546 68.058 19.3103L65.136 48.9111L83.9926 25.9165C86.8601 22.6316 91.9055 22.4682 94.9908 25.5535C98.0761 28.6388 97.8946 33.6842 94.6278 36.5517L71.6333 55.4083L101.234 52.4864C105.59 52.196 109.274 55.6443 109.274 60C109.274 64.3557 105.59 67.804 101.234 67.5136Z" fill="black"/>
</svg>
