<svg width="120" height="120" viewBox="0 0 120 120" fill="none" xmlns="http://www.w3.org/2000/svg">
<path d="M112.301 64.1411L87.1283 59.9993L112.301 55.8575C117.731 54.7991 121.113 49.3457 119.664 44.0305C118.214 38.7152 112.6 35.6779 107.354 37.4726L83.4697 46.4695L103.189 30.2936C107.354 26.658 107.561 20.2613 103.649 16.3496C99.7375 12.438 93.3408 12.6681 89.7053 16.8098L73.5296 36.5293L82.5264 12.6451C84.2981 7.42184 81.3068 1.76141 75.9686 0.334796C70.6304 -1.09181 65.2002 2.29066 64.1417 7.69797L60 32.8707L55.8583 7.69797C54.7998 2.29066 49.3466 -1.11482 44.0313 0.334796C38.6931 1.76141 35.6789 7.39883 37.4736 12.6451L46.4704 36.5293L30.2946 16.8098C26.6591 12.6451 20.2625 12.438 16.3509 16.3496C12.4392 20.2613 12.6693 26.658 16.811 30.2936L36.5302 46.4695L12.6463 37.4726C7.42315 35.7009 1.76282 38.6922 0.336225 44.0305C-1.09037 49.3687 2.29203 54.7991 7.69928 55.8575L32.8717 59.9993L7.69928 64.1411C2.26902 65.2226 -1.11338 70.6528 0.336225 75.9681C1.78583 81.2834 7.40014 84.3207 12.6463 82.5259L36.5302 73.5291L16.811 89.705C12.6463 93.3405 12.4392 99.7373 16.3509 103.649C20.2625 107.561 26.6591 107.331 30.2946 103.189L46.4704 83.4693L37.4736 107.354C35.7019 112.577 38.6931 118.237 44.0313 119.664C49.3696 121.09 54.7998 117.708 55.8583 112.301L60 87.1279L64.1417 112.301C65.2002 117.731 70.6534 121.113 75.9686 119.664C81.2838 118.214 84.3211 112.6 82.5264 107.354L73.5296 83.4693L89.7053 103.189C93.3408 107.354 99.7375 107.561 103.649 103.649C107.561 99.7373 107.331 93.3405 103.189 89.705L83.4697 73.5291L107.354 82.5259C112.577 84.2977 118.237 81.3064 119.664 75.9681C121.09 70.6298 117.708 65.1996 112.301 64.1411Z" fill="black"/>
</svg>
