<svg width="120" height="121" viewBox="0 0 120 121" fill="none" xmlns="http://www.w3.org/2000/svg">
<path d="M65.6826 53.5495L60.4072 0.361008C60.3517 -0.120336 59.6483 -0.120336 59.5928 0.361008L54.3175 53.5495C54.2804 53.9568 53.9473 54.29 53.54 54.327L0.360944 59.6033C-0.120315 59.6589 -0.120315 60.3624 0.360944 60.4179L53.54 65.6942C53.9473 65.7312 54.2804 66.0644 54.3175 66.4717L59.5928 119.66C59.6483 120.142 60.3517 120.142 60.4072 119.66L65.6826 66.4717C65.7196 66.0644 66.0528 65.7312 66.46 65.6942L119.639 60.4179C120.12 60.3624 120.12 59.6589 119.639 59.6033L66.46 54.327C66.0528 54.29 65.7196 53.9568 65.6826 53.5495Z" fill="black"/>
</svg>
