<svg width="120" height="148" viewBox="0 0 120 148" fill="none" xmlns="http://www.w3.org/2000/svg">
<path d="M73.1062 72.7786L119.784 39.2689C120.284 38.9054 119.83 38.1556 119.285 38.4055L67.9955 61.6012C67.3368 61.8965 66.5645 61.4649 66.4963 60.7379L60.4997 0.443011C60.4316 -0.14767 59.5684 -0.14767 59.5003 0.443011L53.5036 60.7379C53.4355 61.4649 52.6632 61.8965 52.0045 61.6012L0.715217 38.4055C0.17007 38.1556 -0.284223 38.9054 0.215496 39.2689L46.8937 72.7786C47.4843 73.2103 47.4843 74.0736 46.8937 74.5053L0.215496 108.015C-0.284223 108.379 0.17007 109.128 0.715217 108.878L52.0045 85.6827C52.6632 85.3874 53.4355 85.8191 53.5036 86.546L59.5003 146.841C59.5684 147.432 60.4316 147.432 60.4997 146.841L66.4963 86.546C66.5645 85.8191 67.3368 85.3874 67.9955 85.6827L119.285 108.878C119.83 109.128 120.284 108.379 119.784 108.015L73.1062 74.5053C72.5157 74.0736 72.5157 73.2103 73.1062 72.7786Z" fill="black"/>
</svg>
