<svg width="120" height="121" viewBox="0 0 120 121" fill="none" xmlns="http://www.w3.org/2000/svg">
<path d="M119.639 59.6035L72.3239 54.9025L102.449 18.1281C102.763 17.7394 102.264 17.2397 101.875 17.5543L65.1072 47.6846L60.4071 0.360897C60.3516 -0.120299 59.6484 -0.120299 59.5929 0.360897L54.8928 47.6846L18.1249 17.5543C17.7363 17.2397 17.2367 17.7394 17.5513 18.1281L47.6762 54.9025L0.360833 59.6035C-0.120278 59.659 -0.120278 60.3623 0.360833 60.4178L47.6762 65.1187L17.5513 101.893C17.2367 102.282 17.7363 102.781 18.1249 102.467L54.8928 72.3367L59.5929 119.66C59.6484 120.142 60.3516 120.142 60.4071 119.66L65.1072 72.3367L101.875 102.467C102.264 102.781 102.763 102.282 102.449 101.893L72.3239 65.1187L119.639 60.4178C120.12 60.3623 120.12 59.659 119.639 59.6035Z" fill="black"/>
</svg>
