<svg width="145" height="145" viewBox="0 0 145 145" fill="none" xmlns="http://www.w3.org/2000/svg">
<path d="M72.3682 0C72.3735 15.3217 77.1391 29.5305 85.2656 41.2285C99.2843 38.7034 112.702 32.027 123.54 21.1963C112.71 32.0343 106.032 45.4514 103.507 59.4697C115.205 67.5967 129.414 72.3629 144.736 72.3682C129.414 72.3734 115.204 77.1384 103.506 85.2656C106.031 99.2845 112.71 112.702 123.541 123.54C112.703 112.709 99.2846 106.031 85.2656 103.506C77.1386 115.204 72.3734 129.414 72.3682 144.736C72.363 129.414 67.5978 115.204 59.4707 103.506C45.452 106.031 32.0345 112.709 21.1963 123.54C32.0272 112.702 38.7043 99.2844 41.2295 85.2656C29.5313 77.1387 15.3221 72.3734 0 72.3682C15.3224 72.363 29.5311 67.5959 41.2295 59.4688C38.704 45.4507 32.0267 32.0341 21.1963 21.1963C32.0342 32.0268 45.4515 38.7041 59.4697 41.2295C67.5968 29.5312 72.3629 15.3223 72.3682 0Z" fill="black"/>
</svg>
