<svg width="121" height="121" viewBox="0 0 121 121" fill="none" xmlns="http://www.w3.org/2000/svg">
<path d="M120.047 30.2678C120.047 14.0322 106.914 0.867188 90.7182 0.867188C74.5224 0.867188 61.3895 14.0322 61.3895 30.2678C61.3895 32.497 61.6623 34.6631 62.1238 36.7662C61.4315 36.7031 60.7392 36.6611 60.0469 36.6611C59.3546 36.6611 58.6623 36.7031 57.97 36.7662C58.4315 34.6631 58.7042 32.497 58.7042 30.2678C58.7042 14.0322 45.5713 0.867188 29.3755 0.867188C13.1797 0.867188 0.046875 14.0322 0.046875 30.2678C0.046875 46.5033 13.1797 59.6684 29.3755 59.6684C31.6623 59.6684 33.8651 59.374 36.0049 58.8903C35.942 59.5423 35.9 60.1942 35.9 60.8672C35.9 61.5402 35.942 62.1921 36.0049 62.8441C33.8651 62.3604 31.6623 62.0659 29.3755 62.0659C13.1797 62.0659 0.046875 75.231 0.046875 91.4665C0.046875 107.702 13.1797 120.867 29.3755 120.867C45.5713 120.867 58.7042 107.702 58.7042 91.4665C58.7042 89.2373 58.4315 87.0712 57.97 84.9681C58.6623 85.0312 59.3546 85.0732 60.0469 85.0732C60.7392 85.0732 61.4315 85.0312 62.1238 84.9681C61.6623 87.0501 61.3895 89.2373 61.3895 91.4665C61.3895 107.702 74.5224 120.867 90.7182 120.867C106.914 120.867 120.047 107.702 120.047 91.4665C120.047 75.231 106.914 62.0659 90.7182 62.0659C88.4315 62.0659 86.2287 62.3604 84.0888 62.8441C84.1518 62.1921 84.1937 61.5402 84.1937 60.8672C84.1937 60.1942 84.1518 59.5423 84.0888 58.8903C86.2287 59.374 88.4315 59.6684 90.7182 59.6684C106.914 59.6684 120.047 46.5033 120.047 30.2678Z" fill="black"/>
</svg>
