<svg width="121" height="121" viewBox="0 0 121 121" fill="none" xmlns="http://www.w3.org/2000/svg">
<path d="M120.141 55.8322H79.154L114.652 35.3325L109.556 26.5133L74.0577 46.9934L94.5411 11.5206L85.7205 6.42507L65.237 41.8979V0.917969H55.0443V41.8979L34.5411 6.42507L25.7205 11.5206L46.204 46.9934L10.7254 26.5133L5.62902 35.3325L41.1076 55.8322H0.140625V66.0233H41.1076L5.62902 86.5035L10.7254 95.3227L46.204 74.8425L25.7205 110.335L34.5411 115.43L55.0443 79.938V120.918H65.237V79.938L85.7205 115.43L94.5411 110.335L74.0577 74.8425L109.556 95.3227L114.652 86.5035L79.154 66.0233H120.141V55.8322Z" fill="black"/>
</svg>
