<svg width="135" height="85" viewBox="0 0 135 85" fill="none" xmlns="http://www.w3.org/2000/svg">
<path d="M54.4222 22.8894L34.6962 42.6439L54.4222 62.3984M99 42.6327L35.8964 42.6327" stroke="black" stroke-width="2.31997"/>
<path d="M67.1338 1.78906C85.4892 1.78906 102.052 6.45108 113.989 13.9277C125.942 21.4145 133.108 31.6101 133.108 42.6787C133.108 53.7471 125.942 63.942 113.989 71.4287C102.052 78.9054 85.4892 83.5674 67.1338 83.5674C48.7786 83.5673 32.2162 78.9053 20.2793 71.4287C8.32644 63.942 1.16031 53.7471 1.16016 42.6787C1.16016 31.6101 8.32631 21.4145 20.2793 13.9277C32.2162 6.45121 48.7786 1.78912 67.1338 1.78906Z" stroke="black" stroke-width="2.31997"/>
</svg>
