<svg width="179" height="85" viewBox="0 0 179 85" fill="none" xmlns="http://www.w3.org/2000/svg">
<path d="M41.4642 31.6575L30.7344 42.3766L41.4418 53.1172" stroke="black" stroke-width="2.31997"/>
<line x1="30.7344" y1="42.2892" x2="147.994" y2="42.2892" stroke="black" stroke-width="2.31997"/>
<path d="M89.3184 1.5C113.851 1.5 136.005 6.18347 151.982 13.7051C168.05 21.2695 177.478 31.491 177.478 42.3896C177.477 53.2882 168.05 63.5089 151.982 71.0732C136.005 78.5949 113.851 83.2783 89.3184 83.2783C64.7857 83.2783 42.6323 78.5948 26.6553 71.0732C10.5875 63.5089 1.16037 53.2882 1.16016 42.3896C1.16016 31.491 10.5873 21.2695 26.6553 13.7051C42.6323 6.18353 64.7857 1.50006 89.3184 1.5Z" stroke="black" stroke-width="2.31997"/>
</svg>
