<svg width="120" height="120" viewBox="0 0 120 120" fill="none" xmlns="http://www.w3.org/2000/svg">
<path d="M61.1553 0C62.0694 5.45905e-05 62.8105 0.741181 62.8105 1.65527V51.6855L63.749 52.624H65.3906L79.9355 38.0791L80.0615 37.9658C80.7115 37.4358 81.6704 37.4734 82.2764 38.0791C82.9228 38.7255 82.9228 39.7745 82.2764 40.4209L68.876 53.8203V57.751L71.375 60.25H118.345C119.259 60.25 120 60.9911 120 61.9053C120 62.8194 119.259 63.5605 118.345 63.5605H69.8145L68.876 64.499V65.6934L84.6172 81.4355L84.7305 81.5615C85.2607 82.2116 85.2231 83.1704 84.6172 83.7764C83.9708 84.4227 82.9227 84.4227 82.2764 83.7764L68.1035 69.6035H63.7715L62.8105 70.5645V118.345L62.8018 118.514C62.7172 119.348 62.0124 120 61.1553 120C60.2411 120 59.5 119.259 59.5 118.345V72.125L56.9785 69.6035H53.0938L38.9209 83.7764C38.2745 84.4228 37.2255 84.4228 36.5791 83.7764C35.9331 83.1301 35.9331 82.0819 36.5791 81.4355L52.0576 65.9561V64.6826L50.9355 63.5605H1.65527L1.48633 63.5518C0.651553 63.4672 5.64643e-05 62.7623 0 61.9053C7.99155e-08 60.9911 0.741147 60.25 1.65527 60.25H49.375L52.0576 57.5674V53.5576L38.9209 40.4209C38.2745 39.7745 38.2745 38.7255 38.9209 38.0791C39.5673 37.4332 40.6155 37.4329 41.2617 38.0791L55.8066 52.624H57.001L59.5 50.125V1.65527C59.5 0.741147 60.2411 3.99577e-08 61.1553 0Z" fill="black"/>
</svg>
