<svg width="121" height="121" viewBox="0 0 121 121" fill="none" xmlns="http://www.w3.org/2000/svg">
<path d="M67.1788 3.94688C72.6981 -1.95159 82.5052 0.953277 83.9785 8.914C85.0119 14.502 90.5091 18.0722 96.0064 16.6973C103.79 14.746 110.497 22.5293 107.463 30.0465C105.33 35.3241 108.056 41.3113 113.4 43.1518C121.008 45.7684 122.459 55.9688 115.885 60.6254C111.267 63.9073 110.343 70.4266 113.861 74.8838C118.853 81.2257 114.609 90.6057 106.583 90.9383C100.932 91.1822 96.666 96.1493 97.2377 101.826C98.0513 109.875 89.4536 115.464 82.5051 111.361C77.6235 108.478 71.3567 110.341 68.806 115.419C65.1558 122.626 54.953 122.626 51.3028 115.419C48.7521 110.341 42.4632 108.478 37.6036 111.361C30.6771 115.441 22.0793 109.875 22.8709 101.826C23.4427 96.1493 19.1548 91.1822 13.5256 90.9383C5.49964 90.6057 1.25576 81.2257 6.24727 74.8838C9.76551 70.4266 8.84201 63.9073 4.22432 60.6254C-2.3284 55.9688 -0.87712 45.7684 6.70908 43.1518C12.0524 41.3113 14.7791 35.3241 12.6461 30.0465C9.63365 22.5514 16.3182 14.746 24.1023 16.6973C29.5776 18.0722 35.0749 14.502 36.1304 8.914C37.6036 0.953277 47.4108 -1.95159 52.93 3.94688C56.8001 8.09356 63.3308 8.09356 67.2228 3.94688H67.1788Z" fill="black"/>
</svg>
