<svg width="120" height="121" viewBox="0 0 120 121" fill="none" xmlns="http://www.w3.org/2000/svg">
<path d="M60 0.980469C60.4651 0.980469 60.8613 1.35945 60.8613 1.8418L61.0684 30.8857C61.189 46.7858 74.1947 59.8087 90.0947 59.9121L119.139 60.1191C119.604 60.1191 120 60.5154 120 60.9805C120 61.4456 119.621 61.8418 119.139 61.8418L90.0947 62.0488C74.1947 62.1694 61.1717 75.1923 61.0684 91.0752L60.8613 120.119C60.8613 120.584 60.4651 120.98 60 120.98C59.5349 120.98 59.1387 120.601 59.1387 120.119L58.9316 91.0752C58.811 75.1751 45.7881 62.1522 29.9053 62.0488L0.861328 61.8418C0.396214 61.8418 3.77049e-06 61.4456 0 60.9805C0 60.5154 0.378985 60.1191 0.861328 60.1191L29.9053 59.9121C45.8053 59.7915 58.8283 46.7686 58.9316 30.8857L59.1387 1.8418C59.1387 1.37668 59.5349 0.980469 60 0.980469Z" fill="black"/>
</svg>
