<svg width="120" height="120" viewBox="0 0 120 120" fill="none" xmlns="http://www.w3.org/2000/svg">
<path d="M17.4371 17.4429C-5.91002 40.7887 -5.80309 78.7836 17.7045 102.29C41.212 125.796 79.1912 125.921 102.556 102.557C125.921 79.1935 125.796 41.2164 102.289 17.7102C78.7813 -5.79605 40.8021 -5.9208 17.4371 17.4429V17.4429ZM72.2049 23.6981C78.3357 29.8286 78.8526 39.4699 73.7911 46.2064C80.5457 41.1451 90.1697 41.6619 96.3006 47.7924L108.491 59.9822L96.3006 72.1719C90.2766 78.1955 80.8843 78.7836 74.1653 74.0075C74.1119 74.061 74.0584 74.0966 74.0049 74.1501C78.7813 80.8687 78.1932 90.2783 72.1692 96.3019L59.9788 108.492L47.7884 96.3019C41.6576 90.1714 41.1407 80.5301 46.2022 73.7936C39.4476 78.8549 29.8236 78.3381 23.6927 72.2076L11.5023 60.0178L23.6927 47.8281C29.8592 41.6619 39.5545 41.1629 46.3092 46.3133C41.1585 39.559 41.6576 29.8643 47.8241 23.6981L60.0145 11.5084L72.2049 23.6981V23.6981Z" fill="black"/>
</svg>
