<svg width="121" height="121" viewBox="0 0 121 121" fill="none" xmlns="http://www.w3.org/2000/svg">
<path d="M113.197 53.6896L61.4661 60.0295C61.4661 60.0295 61.3706 60.0295 61.3133 60.0295C61.3515 59.9913 61.3706 59.9532 61.4279 59.915L102.485 27.8144C105.635 25.351 105.922 20.6915 103.096 17.8653C100.269 15.0391 95.6099 15.3255 93.1465 18.4764L61.046 59.533C61.046 59.533 60.9696 59.6094 60.9314 59.6476C60.9314 59.5903 60.9314 59.5521 60.9314 59.4948L67.2713 7.76346C67.7487 3.79147 64.6551 0.296875 60.664 0.296875C56.6729 0.296875 53.5794 3.79147 54.0568 7.76346L60.3967 59.4948C60.3967 59.4948 60.3967 59.5903 60.3967 59.6476C60.3585 59.6094 60.3203 59.5712 60.2821 59.533L28.1815 18.4764C25.7181 15.3255 21.0587 15.0391 18.2325 17.8653C15.4062 20.6915 15.6927 25.351 18.8435 27.8144L59.9002 59.915C59.9002 59.915 59.9766 59.9913 60.0148 60.0295C59.9575 60.0295 59.9193 60.0295 59.862 60.0295L8.13059 53.6896C4.1586 53.2122 0.664062 56.3058 0.664062 60.2969C0.664062 64.288 4.1586 67.3815 8.13059 66.9041L59.862 60.5642C59.862 60.5642 59.9575 60.5642 60.0148 60.5642C59.9766 60.6024 59.9575 60.6406 59.9002 60.6788L18.8435 92.7794C15.6927 95.2428 15.4062 99.9022 18.2325 102.728C21.0587 105.555 25.7181 105.268 28.1815 102.117L60.2821 61.0607C60.2821 61.0607 60.3585 60.9843 60.3967 60.9461C60.3967 61.0034 60.3967 61.0416 60.3967 61.0989L54.0568 112.83C53.5794 116.802 56.6729 120.297 60.664 120.297C64.6551 120.297 67.7487 116.802 67.2713 112.83L60.9314 61.0989C60.9314 61.0989 60.9314 61.0034 60.9314 60.9461C60.9696 60.9843 61.0078 61.0225 61.046 61.0607L93.1465 102.117C95.6099 105.268 100.269 105.555 103.096 102.728C105.922 99.9022 105.635 95.2428 102.485 92.7794L61.4279 60.6788C61.4279 60.6788 61.3515 60.6024 61.3133 60.5642C61.3706 60.5642 61.4088 60.5642 61.4661 60.5642L113.197 66.9041C117.169 67.3815 120.664 64.288 120.664 60.2969C120.664 56.3058 117.169 53.2122 113.197 53.6896Z" fill="black"/>
</svg>
