<svg width="120" height="121" viewBox="0 0 120 121" fill="none" xmlns="http://www.w3.org/2000/svg">
<path d="M89.8443 61.9376C85.7969 61.9376 81.9274 62.7297 78.3914 64.1427C78.3914 64.0999 78.3914 64.0571 78.3692 64.0143C79.3921 63.2649 80.3929 62.4728 81.3269 61.5736C93.0912 50.248 93.0912 31.8359 81.3269 20.5317L60 0L38.6731 20.5317C32.98 26.0125 29.8443 33.3131 29.8443 41.0633C29.8443 48.8136 32.98 56.1142 38.6731 61.595C39.7183 62.6013 40.808 63.479 41.9644 64.2926C38.3395 62.7939 34.3365 61.959 30.1557 61.959C13.5211 61.959 0 74.9759 0 90.9902V120.021H30.1557C45.4114 120.021 58.0208 109.06 60 94.8867C61.9792 109.06 74.5886 120.021 89.8443 120.021H120V90.9902C120 74.9759 106.479 61.959 89.8443 61.959V61.9376Z" fill="black"/>
</svg>
