<svg width="120" height="121" viewBox="0 0 120 121" fill="none" xmlns="http://www.w3.org/2000/svg">
<path d="M119.621 59.6035L68.8635 54.5694L82.2235 38.2457C82.4826 37.9311 82.0571 37.5055 81.7425 37.7646L65.4218 51.127L60.3886 0.360896C60.3331 -0.120299 59.6299 -0.120299 59.5744 0.360896L54.5413 51.127L38.2391 37.7646C37.9245 37.5055 37.4989 37.9311 37.7579 38.2457L51.1179 54.5694L0.360833 59.6035C-0.120278 59.659 -0.120278 60.3623 0.360833 60.4178L51.1179 65.4518L37.7579 81.7754C37.4989 82.09 37.9245 82.5157 38.2391 82.2566L54.5598 68.8941L59.5929 119.66C59.6484 120.142 60.3516 120.142 60.4071 119.66L65.4402 68.8941L81.7609 82.2566C82.0755 82.5157 82.5011 82.09 82.2421 81.7754L68.8821 65.4518L119.639 60.4178C120.12 60.3623 120.12 59.659 119.639 59.6035H119.621Z" fill="black"/>
</svg>
