<svg width="120" height="120" viewBox="0 0 120 120" fill="none" xmlns="http://www.w3.org/2000/svg">
<path d="M60 0C26.8603 0 0 26.8643 0 59.9909C0 93.1175 26.8603 120 60 120C93.1397 120 120 93.1357 120 59.9909C120 26.8462 93.1216 0 60 0ZM100.672 67.5238L63.8657 63.8935L67.4955 100.705C67.7858 105.061 64.3376 108.746 59.9818 108.746C55.6261 108.746 52.1779 105.061 52.4682 100.705L56.098 63.8935L19.2922 67.5238C14.9365 67.8143 11.2523 64.3654 11.2523 60.0091C11.2523 55.6527 14.9365 52.2039 19.2922 52.4943L56.098 56.1246L52.4682 19.3133C52.1779 14.9569 55.6261 11.2721 59.9818 11.2721C64.3376 11.2721 67.7858 14.9569 67.4955 19.3133L63.8657 56.1246L100.672 52.4943C105.027 52.2039 108.711 55.6527 108.711 60.0091C108.711 64.3654 105.027 67.8143 100.672 67.5238Z" fill="black"/>
</svg>
