<svg width="120" height="120" viewBox="0 0 120 120" fill="none" xmlns="http://www.w3.org/2000/svg">
<path d="M119.691 46.1593C118.153 40.5354 112.306 37.4192 106.934 39.3912L65.4903 56.1166L69.8453 10.7851C70.224 4.94214 65.727 0 60.0465 0C54.3661 0 49.8691 4.94214 50.2478 10.7851L54.6028 56.1166L13.1356 39.3912C7.78657 37.4192 1.94046 40.5354 0.37834 46.1593C-1.18378 51.7831 2.24815 57.5774 7.78657 58.7947L52.8277 67.0722L20.7569 103.347C17.0646 107.802 17.7983 114.522 22.3663 118.003C26.9344 121.485 33.3958 120.292 36.4727 115.374L59.9045 75.2767L83.3363 115.374C86.4132 120.292 92.8984 121.485 97.4427 118.003C102.011 114.522 102.744 107.778 99.0522 103.347L67.0051 67.0965L112.212 58.7947C117.774 57.5774 121.182 51.7831 119.62 46.1593H119.691Z" fill="black"/>
</svg>
