<svg width="1369" height="120" viewBox="0 0 1369 120" fill="none" xmlns="http://www.w3.org/2000/svg">
<path d="M1331.02 76.0382V38.0312H1293.02H1255.02V76.0382H1293.02H1331V114.045H1369V76.0382H1331.02Z" fill="black"/>
<path d="M1255 0H1217V38.0071H1255V0Z" fill="black"/>
<path d="M1021.74 1H985V37.7506H1021.74V1Z" fill="black"/>
<path d="M1095.25 1V37.7506H1058.51H1021.74V74.5011H1058.51V74.5252H1095.25V37.7506H1132V1H1095.25Z" fill="black"/>
<path d="M859.984 80.0078H820V119.999H859.984V80.0078Z" fill="black"/>
<path d="M859.984 0V40.0175V80.0086H899.969V40.0175V0H859.984Z" fill="black"/>
<path d="M655 0H615V39.9913H655V0Z" fill="black"/>
<path d="M695.026 80.0106V40.0195H655V80.0106H694.974V120.002H735V80.0106H695.026Z" fill="black"/>
<path d="M489.984 0H449.992V39.999H489.984V0Z" fill="black"/>
<path d="M530 40H490.008V79.9989H530V40Z" fill="black"/>
<path d="M449.992 40H410V79.9989H449.992V40Z" fill="black"/>
<path d="M285 0H245V39.9913H285V0Z" fill="black"/>
<path d="M325 39.9922H285V79.9833H325V39.9922Z" fill="black"/>
<path d="M245 39.9922H205V79.9833H245V39.9922Z" fill="black"/>
<path d="M285 80.0078H245V119.999H285V80.0078Z" fill="black"/>
<path d="M79.9841 40.0195H39.9922V80.0107H79.9841V40.0195Z" fill="black"/>
<path d="M39.9919 80.0078H0V119.999H39.9919V80.0078Z" fill="black"/>
<path d="M120 80.0078H80.0078V119.999H120V80.0078Z" fill="black"/>
<path d="M39.9919 0H0V39.9913H39.9919V0Z" fill="black"/>
<path d="M120 0H80.0078V39.9913H120V0Z" fill="black"/>
</svg>
