<svg width="120" height="120" viewBox="0 0 120 120" fill="none" xmlns="http://www.w3.org/2000/svg">
<path d="M65.1422 0L60.0008 37.395L54.8594 0H65.1422Z" fill="black"/>
<path d="M54.8594 119.999L60.0008 82.6211L65.1422 119.999H54.8594Z" fill="black"/>
<path d="M120.004 65.1422L82.6094 60.0008L120.004 54.8594V65.1422Z" fill="black"/>
<path d="M0 54.8594L37.395 60.0008L0 65.1422V54.8594Z" fill="black"/>
<path d="M93.3701 30.2817L75.9922 44.0092L89.7197 26.6484L93.3701 30.2817Z" fill="black"/>
<path d="M26.6484 89.7329L44.0092 75.9883L30.2817 93.3662L26.6484 89.7329Z" fill="black"/>
<path d="M89.7197 93.3662L75.9922 75.9883L93.3701 89.7329L89.7197 93.3662Z" fill="black"/>
<path d="M30.2817 26.6484L44.0092 44.0092L26.6484 30.2817L30.2817 26.6484Z" fill="black"/>
</svg>
