<svg width="121" height="120" viewBox="0 0 121 120" fill="none" xmlns="http://www.w3.org/2000/svg">
<path d="M117.084 57.7141C103.782 42.1508 82.2659 39.0003 65.656 48.9257C67.524 42.4825 72.5655 37.271 79.25 35.7786L92.4839 32.8176C99.2585 31.3015 103.58 24.2898 102.139 17.1596C100.699 10.0294 94.0369 5.48125 87.2624 6.9973C67.5915 11.4033 54.155 29.7618 54.3126 50.1101C49.7212 45.183 47.8307 37.8159 49.9913 30.8278L54.1775 17.278C56.3157 10.3374 52.7146 2.89924 46.1202 0.648842C39.5257 -1.60155 32.4586 2.18855 30.3205 9.12924C24.1762 29.0511 32.3236 50.2286 48.7985 60.3909C42.5641 61.9069 35.7671 59.9171 31.1757 54.5635L22.128 43.9749C17.4917 38.5502 9.56932 38.1238 4.41529 43.0036C-0.738738 47.8834 -1.14387 56.2217 3.49251 61.6464C16.974 77.3991 38.8505 80.4549 55.5279 70.0557C53.8399 76.8069 48.6859 82.3263 41.7539 83.8897L28.5199 86.8507C21.7454 88.3668 17.4241 95.3786 18.8645 102.509C20.305 109.639 26.967 114.187 33.7415 112.671C53.1873 108.312 66.5562 90.3092 66.6912 70.1978C71.0575 75.125 72.8356 82.3026 70.6974 89.1722L66.5112 102.722C64.3731 109.663 67.9741 117.101 74.5686 119.351C81.163 121.602 88.2302 117.811 90.3683 110.871C96.6027 90.6646 88.1176 69.1318 71.1476 59.159C77.5395 57.3587 84.6291 59.2775 89.3555 64.7969L98.4032 75.3856C103.04 80.8102 110.962 81.2366 116.116 76.3568C121.27 71.477 121.675 63.1387 117.039 57.7141H117.084Z" fill="black"/>
</svg>
