<svg width="121" height="120" viewBox="0 0 121 120" fill="none" xmlns="http://www.w3.org/2000/svg">
<path d="M60.8438 0C27.704 0 0.84375 26.8603 0.84375 60C0.84375 93.1397 27.704 120 60.8438 120C93.9835 120 120.844 93.1397 120.844 60C120.844 26.8603 93.9835 0 60.8438 0ZM103.258 61.5245C81.6241 63.6661 64.528 80.7804 62.3682 102.414C62.1868 104.265 59.5007 104.265 59.3193 102.414C57.1777 80.7804 40.0634 63.6842 18.43 61.5245C16.5788 61.343 16.5788 58.657 18.43 58.4755C40.0634 56.3339 57.1595 39.2196 59.3193 17.5862C59.5007 15.735 62.1868 15.735 62.3682 17.5862C64.5098 39.2196 81.6241 56.3158 103.258 58.4755C105.109 58.657 105.109 61.343 103.258 61.5245Z" fill="black"/>
</svg>
