<svg width="120" height="121" viewBox="0 0 120 121" fill="none" xmlns="http://www.w3.org/2000/svg">
<path d="M111.703 89.3384L71.348 70.9516L91.2 110.607C91.5532 111.313 90.568 111.908 90.1033 111.258L64.3589 75.1532L61.738 119.419C61.6822 120.2 60.5297 120.237 60.4554 119.438L56.1988 75.302L31.7927 112.336C31.3652 112.987 30.3428 112.429 30.6774 111.722L49.061 71.3606L9.41269 91.2162C8.70634 91.5694 8.11151 90.584 8.76209 90.1192L44.8601 64.3703L0.601981 61.7488C-0.178716 61.6931 -0.21591 60.5404 0.583375 60.466L44.7113 56.2087L7.68401 31.7983C7.03343 31.3707 7.59105 30.3482 8.29739 30.6828L48.652 49.0696L28.8 9.41435C28.4468 8.70788 29.432 8.11289 29.8967 8.76359L55.6411 44.868L58.262 0.602088C58.3178 -0.178748 59.4702 -0.215948 59.5446 0.583478L63.8013 44.7192L88.2073 7.68538C88.6349 7.03468 89.6572 7.59234 89.3226 8.29881L70.9391 48.6606L110.587 28.8051C111.294 28.4519 111.888 29.4371 111.238 29.9019L75.14 55.651L119.398 58.2723C120.179 58.3281 120.216 59.4807 119.417 59.5551L75.2886 63.8126L112.316 88.223C112.967 88.6506 112.409 89.6731 111.703 89.3384Z" fill="black"/>
</svg>
