<svg width="121" height="121" viewBox="0 0 121 121" fill="none" xmlns="http://www.w3.org/2000/svg">
<path d="M90.8588 57.6931C84.7959 57.6931 79.1735 59.6803 74.4952 63.0676C74.2015 62.1869 73.8448 61.3288 73.4252 60.5385C82.9707 55.3221 89.5161 44.7086 89.5161 32.4015C89.5161 14.9683 76.3833 0.832031 60.1875 0.832031C43.9917 0.832031 30.8588 14.9683 30.8588 32.4015C30.8588 44.7086 37.4043 55.3446 46.9497 60.5385C46.5302 61.3514 46.1735 62.1869 45.8798 63.0676C41.2015 59.6803 35.5791 57.6931 29.5162 57.6931C13.3204 57.6931 0.1875 71.8294 0.1875 89.2626C0.1875 106.696 13.3204 120.832 29.5162 120.832C45.712 120.832 58.8448 106.696 58.8448 89.2626C58.8448 87.7496 58.719 86.3043 58.5301 84.8591C59.0756 84.9268 59.6211 84.9494 60.1875 84.9494C60.7539 84.9494 61.2994 84.9043 61.8448 84.8591C61.656 86.3043 61.5301 87.7722 61.5301 89.2626C61.5301 106.696 74.663 120.832 90.8588 120.832C107.055 120.832 120.187 106.696 120.187 89.2626C120.187 71.8294 107.055 57.6931 90.8588 57.6931V57.6931Z" fill="black"/>
</svg>
