<svg width="121" height="120" viewBox="0 0 121 120" fill="none" xmlns="http://www.w3.org/2000/svg">
<path d="M115.144 73.0333C120.47 84.9469 112.383 98.5501 99.3376 99.6115C92.8151 100.153 87.0319 103.987 84.0098 109.771C77.9874 121.359 62.2683 123.547 53.289 114.038C48.8102 109.294 42.1791 107.171 35.7653 108.428C22.9161 110.962 11.4148 100.066 13.2628 87.1564C14.1977 80.7013 11.7192 74.2247 6.74034 70.0008C-3.26077 61.5529 -1.89105 45.8053 9.41455 39.2204C15.0674 35.9279 18.6112 29.9711 18.8069 23.4511C19.1982 10.4111 32.3954 1.63836 44.6359 6.33882C50.7452 8.67822 57.6373 7.72513 62.877 3.80447C73.3564 -4.03684 88.4668 0.79358 92.4238 13.2487C94.4023 19.4654 99.4463 24.2309 105.773 25.8771C118.448 29.1479 124.079 43.9425 116.774 54.773C113.122 60.1883 112.535 67.0982 115.187 73.0333H115.144Z" fill="black"/>
</svg>
