<svg width="120" height="120" viewBox="0 0 120 120" fill="none" xmlns="http://www.w3.org/2000/svg">
<path d="M65.1422 0L60.0008 37.395L54.8594 0H65.1422Z" fill="black"/>
<path d="M54.8594 120L60.0008 82.6055L65.1422 120H54.8594Z" fill="black"/>
<path d="M120.004 65.1422L82.6094 60.0008L120.004 54.8594V65.1422Z" fill="black"/>
<path d="M0 54.8594L37.395 60.0008L0 65.1422V54.8594Z" fill="black"/>
<path d="M106.069 21.2172L75.9922 44.0107L98.8028 13.9336L106.069 21.2172Z" fill="black"/>
<path d="M13.9375 98.7989L44.0146 75.9883L21.2211 106.065L13.9375 98.7989Z" fill="black"/>
<path d="M98.8028 106.065L75.9922 75.9883L106.069 98.7989L98.8028 106.065Z" fill="black"/>
<path d="M21.2211 13.9336L44.0146 44.0107L13.9375 21.2172L21.2211 13.9336Z" fill="black"/>
</svg>
